opsz8.ufo
<glyph name="A" format="2">
	<unicode hex="0041"/>
	<advance width="1500"/>
	<outline>
		<contour>
			<point x="-27.9178466797" y="0" type="line"/>
			<point x="-27.9178466797" y="100" type="line"/>
			<point x="166.0821533203" y="135" type="line"/>
			<point x="331.6405639648" y="535.939453125" type="line"/>
			<point x="701.6804199219" y="1508" type="line"/>
			<point x="791.9359741211" y="1508" type="line"/>
			<point x="1149.1608276367" y="594.1618652344" type="line"/>
			<point x="1340.7543334961" y="135" type="line"/>
			<point x="1523.7543334961" y="100" type="line"/>
			<point x="1523.7543334961" y="0" type="line"/>
			<point x="966.8040161133" y="0" type="line"/>
			<point x="966.8040161133" y="100" type="line"/>
			<point x="1140.8040161133" y="131" type="line"/>
			<point x="1005.8302612305" y="503" type="line"/>
			<point x="779" y="1132" type="line"/>
			<point x="742" y="1246" type="line"/>
			<point x="732" y="1246" type="line"/>
			<point x="695" y="1132" type="line"/>
			<point x="472.380065918" y="550.5998535156" type="line"/>
			<point x="316.0250854492" y="130" type="line"/>
			<point x="501.0250854492" y="100" type="line"/>
			<point x="501.0250854492" y="0" type="line"/>
		</contour>
		<contour>
			<point x="712.2933349609" y="580.8610839844" type="line"/>
			<point x="1052.5048217773" y="577.4305419922" type="line"/>
			<point x="1070.391784668" y="461.5217285156" type="line"/>
			<point x="712.2933349609" y="475.0434570312" type="line"/>
		</contour>
		<contour>
			<point x="340.4888305664" y="461.5217285156" type="line"/>
			<point x="369.6717529297" y="576.4305419922" type="line"/>
			<point x="712.2933349609" y="580.8610839844" type="line"/>
			<point x="712.2933349609" y="475.0434570312" type="line"/>
		</contour>
	</outline>
	<anchor name="bottom" x="735" y="0"/>
	<anchor name="ogonek" x="1318" y="0"/>
	<anchor name="tonos" x="492" y="1500"/>
	<anchor name="top" x="753" y="1500"/>
</glyph>
<glyph name="D" format="2">
	<unicode hex="0044"/>
	<advance width="1589"/>
	<outline>
		<contour>
			<point x="82" y="0" type="line"/>
			<point x="82" y="100" type="line"/>
			<point x="290" y="135" type="line"/>
			<point x="292" y="754" type="line"/>
			<point x="290" y="1352" type="line"/>
			<point x="82" y="1386" type="line"/>
			<point x="82" y="1500" type="line"/>
			<point x="752.2094726562" y="1500" type="line" smooth="yes"/>
			<point x="1095.3143310547" y="1500"/>
			<point x="1509.1217041016" y="1119"/>
			<point x="1509.1217041016" y="778" type="qcurve" smooth="yes"/>
			<point x="1509.1217041016" y="410"/>
			<point x="1093.2143554688" y="0"/>
			<point x="708.4089355469" y="0" type="qcurve" smooth="yes"/>
		</contour>
		<contour>
			<point x="469.9107666016" y="131.0479736328" type="line"/>
			<point x="503.9107666016" y="125.0479736328"/>
			<point x="652.9105224609" y="111.0479736328"/>
			<point x="726.9105224609" y="111.0479736328" type="qcurve" smooth="yes"/>
			<point x="1010.9105224609" y="111.0479736328"/>
			<point x="1309.9107666016" y="437.2043457031"/>
			<point x="1311.9107666016" y="760" type="qcurve" smooth="yes"/>
			<point x="1314.9107666016" y="1056.4487304688"/>
			<point x="971.9105224609" y="1373.8955078125"/>
			<point x="690.9105224609" y="1373.8955078125" type="qcurve" smooth="yes"/>
			<point x="640.9105224609" y="1373.8955078125"/>
			<point x="505.9107666016" y="1360.8955078125"/>
			<point x="469.9107666016" y="1355.8955078125" type="qcurve"/>
			<point x="467.9107666016" y="754" type="line"/>
		</contour>
	</outline>
	<anchor name="bottom" x="686" y="0"/>
	<anchor name="center" x="438" y="754"/>
	<anchor name="top" x="686" y="1500"/>
	<anchor name="liga" x="1590" y="0"/>
</glyph>
<glyph name="G" format="2">
	<unicode hex="0047"/>
	<advance width="1584"/>
	<outline>
		<contour>
			<point x="80" y="744" type="qcurve" smooth="yes"/>
			<point x="80" y="1070"/>
			<point x="507.5064697266" y="1520"/>
			<point x="857.0435791016" y="1520" type="qcurve" smooth="yes"/>
			<point x="959.3778076172" y="1520"/>
			<point x="1121.6488037109" y="1470"/>
			<point x="1191.6488037109" y="1423" type="qcurve"/>
			<point x="1233.6488037109" y="1487" type="line"/>
			<point x="1319.9849853516" y="1487" type="line"/>
			<point x="1319.9849853516" y="1062.3560180664" type="line"/>
			<point x="1203.6681518555" y="1062.3560180664" type="line"/>
			<point x="1167.9827270508" y="1226.0977172852" type="line" smooth="yes"/>
			<point x="1153.9827270508" y="1292.0977172852"/>
			<point x="995.711730957" y="1379.8389892578"/>
			<point x="853.7125244141" y="1379.8389892578" type="qcurve" smooth="yes"/>
			<point x="581.7125244141" y="1379.8389892578"/>
			<point x="269.2116699219" y="1048.0406494141"/>
			<point x="271.2116699219" y="764" type="qcurve" smooth="yes"/>
			<point x="273.2116699219" y="466.8370361328"/>
			<point x="599.2116699219" y="92.287109375"/>
			<point x="883.2116699219" y="93.287109375" type="qcurve" smooth="yes"/>
			<point x="1002.7103271484" y="93.287109375"/>
			<point x="1198.6091308594" y="162.6196899414"/>
			<point x="1269.4086914062" y="224.7196655273" type="qcurve"/>
			<point x="1269.4086914062" y="527" type="line"/>
			<point x="1070.4086914062" y="562" type="line"/>
			<point x="1070.4086914062" y="662" type="line"/>
			<point x="1571.619140625" y="662" type="line"/>
			<point x="1571.619140625" y="562" type="line"/>
			<point x="1440.619140625" y="527" type="line"/>
			<point x="1440.619140625" y="219" type="line"/>
			<point x="1364.7181396484" y="123"/>
			<point x="1070.0129394531" y="-30"/>
			<point x="878.208984375" y="-30" type="qcurve" smooth="yes"/>
			<point x="524.4047851562" y="-30"/>
			<point x="80" y="394"/>
		</contour>
	</outline>
	<anchor name="bottom" x="872" y="0"/>
	<anchor name="top" x="836" y="1500"/>
</glyph>
<glyph name="H" format="2">
	<unicode hex="0048"/>
	<advance width="1740"/>
	<outline>
		<contour>
			<point x="82" y="0" type="line"/>
			<point x="82" y="100" type="line"/>
			<point x="290" y="135" type="line"/>
			<point x="292" y="754" type="line"/>
			<point x="290" y="1352" type="line"/>
			<point x="82" y="1386" type="line"/>
			<point x="82" y="1500" type="line"/>
			<point x="677.9107666016" y="1500" type="line"/>
			<point x="677.9107666016" y="1386" type="line"/>
			<point x="469.9107666016" y="1352" type="line"/>
			<point x="467.9107666016" y="754" type="line"/>
			<point x="469.9107666016" y="135" type="line"/>
			<point x="677.9107666016" y="100" type="line"/>
			<point x="677.9107666016" y="0" type="line"/>
		</contour>
		<contour>
			<point x="357.9107666016" y="717.0607910156" type="line"/>
			<point x="357.9107666016" y="849.0522460938" type="line"/>
			<point x="869.9107666016" y="841.0522460938" type="line"/>
			<point x="1383.9107666016" y="849.0522460938" type="line"/>
			<point x="1383.9107666016" y="717.0607910156" type="line"/>
			<point x="869.9107666016" y="717.0607910156" type="line"/>
		</contour>
		<contour>
			<point x="1061.9107666016" y="0" type="line"/>
			<point x="1061.9107666016" y="100" type="line"/>
			<point x="1269.9107666016" y="135" type="line"/>
			<point x="1271.9107666016" y="754" type="line"/>
			<point x="1269.9107666016" y="1352" type="line"/>
			<point x="1061.9107666016" y="1386" type="line"/>
			<point x="1061.9107666016" y="1500" type="line"/>
			<point x="1657.8215332031" y="1500" type="line"/>
			<point x="1657.8215332031" y="1386" type="line"/>
			<point x="1449.8215332031" y="1352" type="line"/>
			<point x="1447.8215332031" y="754" type="line"/>
			<point x="1449.8215332031" y="135" type="line"/>
			<point x="1657.8215332031" y="100" type="line"/>
			<point x="1657.8215332031" y="0" type="line"/>
		</contour>
	</outline>
	<anchor name="bottom" x="870" y="0"/>
	<anchor name="center" x="870" y="1079"/>
	<anchor name="top" x="870" y="1500"/>
	<anchor name="tonos" x="0" y="1500"/>
	<anchor name="cy_descender" x="1658" y="100"/>
</glyph>
<glyph name="J" format="2">
	<unicode hex="004A"/>
	<advance width="743"/>
	<outline>
		<contour>
			<point x="16" y="-197.0024414062" type="qcurve"/>
			<point x="16" y="-93.0024414062" type="line"/>
			<point x="33" y="-93.2524414062"/>
			<point x="79" y="-92.0024414062"/>
			<point x="114" y="-89.7524414062" type="qcurve" smooth="yes"/>
			<point x="217" y="-83.2524414062"/>
			<point x="296" y="20.2475585938"/>
			<point x="295" y="163.2475585938" type="qcurve" smooth="yes"/>
			<point x="292" y="754" type="line"/>
			<point x="290" y="1352" type="line"/>
			<point x="52" y="1386" type="line"/>
			<point x="52" y="1500" type="line"/>
			<point x="660.7105712891" y="1500" type="line"/>
			<point x="670" y="1384" type="line"/>
			<point x="480" y="1350" type="line"/>
			<point x="468.7105712891" y="754" type="line"/>
			<point x="470.7105712891" y="224.4975585938" type="line" smooth="yes"/>
			<point x="472.260559082" y="-0.0024414062"/>
			<point x="278.3067626953" y="-208.0024414062"/>
			<point x="112.1033935547" y="-208.0024414062" type="qcurve" smooth="yes"/>
			<point x="79.1019287109" y="-208.0024414062"/>
			<point x="49" y="-204.0024414062"/>
		</contour>
	</outline>
	<anchor name="bottom" x="376" y="-208"/>
	<anchor name="top" x="376" y="1500"/>
	<anchor name="_liga" x="0" y="0"/>
</glyph>
<glyph name="L" format="2">
	<unicode hex="004C"/>
	<advance width="1258"/>
	<outline>
		<contour>
			<point x="82" y="0" type="line"/>
			<point x="82" y="100" type="line"/>
			<point x="290" y="132" type="line"/>
			<point x="292" y="754" type="line"/>
			<point x="290" y="1352" type="line"/>
			<point x="82" y="1386" type="line"/>
			<point x="82" y="1500" type="line"/>
			<point x="711.9107666016" y="1500" type="line"/>
			<point x="711.9107666016" y="1386" type="line"/>
			<point x="469.9107666016" y="1352" type="line"/>
			<point x="467.9107666016" y="754" type="line"/>
			<point x="469.9107666016" y="132.5262451172" type="line"/>
			<point x="509.9107666016" y="105.5262451172" type="line"/>
			<point x="1061.2429199219" y="105.5262451172" type="line"/>
			<point x="1147.2429199219" y="416.5915527344" type="line"/>
			<point x="1253.2457275391" y="416.5915527344" type="line"/>
			<point x="1207.2457275391" y="0" type="line"/>
		</contour>
	</outline>
	<anchor name="bottom" x="705" y="0"/>
	<anchor name="centerright" x="928" y="750"/>
	<anchor name="top" x="632" y="1500"/>
	<anchor name="topright" x="784" y="1001"/>
	<anchor name="center" x="378" y="750"/>
	<anchor name="liga" x="1264" y="0"/>
</glyph>
<glyph name="M" format="2">
	<unicode hex="004D"/>
	<advance width="2140"/>
	<outline>
		<contour>
			<point x="82" y="0" type="line"/>
			<point x="82" y="100" type="line"/>
			<point x="290" y="135" type="line"/>
			<point x="292" y="754" type="line"/>
			<point x="290" y="1352" type="line"/>
			<point x="82" y="1386" type="line"/>
			<point x="82" y="1500" type="line"/>
			<point x="517.5035400391" y="1500.4195556641" type="line"/>
			<point x="812.4466552734" y="803.1385498047" type="line"/>
			<point x="1004" y="370" type="line"/>
			<point x="1046" y="256" type="line"/>
			<point x="1056" y="256" type="line"/>
			<point x="1098" y="370" type="line"/>
			<point x="1289.5297241211" y="805.8801269531" type="line"/>
			<point x="1577.8601074219" y="1500" type="line"/>
			<point x="2058.4605102539" y="1500" type="line"/>
			<point x="2058.4605102539" y="1386" type="line"/>
			<point x="1850.4605102539" y="1352" type="line"/>
			<point x="1848.4005737305" y="754" type="line"/>
			<point x="1850.4605102539" y="135" type="line"/>
			<point x="2058.4605102539" y="100" type="line"/>
			<point x="2058.4605102539" y="0" type="line"/>
			<point x="1431.2500610352" y="0" type="line"/>
			<point x="1431.4298706055" y="100" type="line"/>
			<point x="1669.2500610352" y="135" type="line"/>
			<point x="1671.2500610352" y="754" type="line"/>
			<point x="1646" y="1210" type="line"/>
			<point x="1650" y="1329" type="line"/>
			<point x="1640" y="1331" type="line"/>
			<point x="1601" y="1224" type="line"/>
			<point x="1407.4705200195" y="744.9211425781" type="line"/>
			<point x="1086.332824707" y="-8" type="line"/>
			<point x="966.4591064453" y="-8" type="line"/>
			<point x="653.9375" y="737.7799072266" type="line"/>
			<point x="458" y="1229" type="line"/>
			<point x="418" y="1336" type="line"/>
			<point x="408" y="1334" type="line"/>
			<point x="413" y="1215" type="line"/>
			<point x="412.4436035156" y="754" type="line"/>
			<point x="414.4436035156" y="135" type="line"/>
			<point x="632.4436035156" y="100" type="line"/>
			<point x="632.4436035156" y="0" type="line"/>
		</contour>
	</outline>
	<anchor name="bottom" x="1025" y="0"/>
	<anchor name="top" x="1058" y="1500"/>
</glyph>
<glyph name="N" format="2">
	<unicode hex="004E"/>
	<advance width="1573"/>
	<outline>
		<contour>
			<point x="82" y="0" type="line"/>
			<point x="82" y="100" type="line"/>
			<point x="276" y="135" type="line"/>
			<point x="278" y="754" type="line"/>
			<point x="276" y="1352" type="line"/>
			<point x="82" y="1386" type="line"/>
			<point x="82" y="1500" type="line"/>
			<point x="474.5209960938" y="1500" type="line"/>
			<point x="882.4625854492" y="806.8717041016" type="line"/>
			<point x="1152.2696533203" y="386.9132080078" type="line"/>
			<point x="1188.0990600586" y="318.6003417969" type="line"/>
			<point x="1200.1990356445" y="321.7202148438" type="line"/>
			<point x="1193.1953125" y="413.7202148438" type="line"/>
			<point x="1189.2515258789" y="748.0014648438" type="line"/>
			<point x="1187.3713989258" y="1352" type="line"/>
			<point x="988.3713989258" y="1386" type="line"/>
			<point x="988.3713989258" y="1500" type="line"/>
			<point x="1500.701965332" y="1500" type="line"/>
			<point x="1500.701965332" y="1386" type="line"/>
			<point x="1306.701965332" y="1352" type="line"/>
			<point x="1304.701965332" y="748.0014648438" type="line"/>
			<point x="1300.701965332" y="0" type="line"/>
			<point x="1188.8543701172" y="0" type="line"/>
			<point x="729.97265625" y="745.9213867188" type="line"/>
			<point x="443.9094238281" y="1217.6220703125" type="line"/>
			<point x="395.6514892578" y="1307.4427490234" type="line"/>
			<point x="383.6514892578" y="1304.3228759766" type="line"/>
			<point x="391.3311767578" y="1181.3228759766" type="line"/>
			<point x="395.0914306641" y="763.9975585938" type="line"/>
			<point x="397.0914306641" y="135" type="line"/>
			<point x="586.0914306641" y="100" type="line"/>
			<point x="586.0914306641" y="0" type="line"/>
		</contour>
	</outline>
	<anchor name="bottom" x="800" y="0"/>
	<anchor name="top" x="800" y="1500"/>
	<anchor name="engtail" x="1324" y="0"/>
	<anchor name="liga" x="1600" y="0"/>
</glyph>
<glyph name="P" format="2">
	<unicode hex="0050"/>
	<advance width="1268"/>
	<outline>
		<contour>
			<point x="82" y="0" type="line"/>
			<point x="82" y="100" type="line"/>
			<point x="290" y="137" type="line"/>
			<point x="292" y="754" type="line"/>
			<point x="290" y="1352" type="line"/>
			<point x="82" y="1386" type="line"/>
			<point x="82" y="1500" type="line"/>
			<point x="735.7159423828" y="1500" type="line" smooth="yes"/>
			<point x="967.0202636719" y="1500"/>
			<point x="1217.6215820312" y="1281"/>
			<point x="1217.6215820312" y="1066" type="qcurve" smooth="yes"/>
			<point x="1217.6215820312" y="858"/>
			<point x="953.8193359375" y="602.2564697266"/>
			<point x="716.9139404297" y="602.2564697266" type="qcurve" smooth="yes"/>
			<point x="609.2124023438" y="602.2564697266"/>
			<point x="440.9107666016" y="622.2564697266"/>
			<point x="387.9107666016" y="631.2564697266" type="qcurve"/>
			<point x="396.9107666016" y="735.9891967773" type="line"/>
			<point x="455.9107666016" y="723.9891967773"/>
			<point x="566.4118652344" y="715.9891967773"/>
			<point x="668.4118652344" y="715.9891967773" type="qcurve" smooth="yes"/>
			<point x="839.4118652344" y="715.9891967773"/>
			<point x="1022.9107666016" y="902.0001220703"/>
			<point x="1022.9107666016" y="1067" type="qcurve" smooth="yes"/>
			<point x="1022.9107666016" y="1219.2447509766"/>
			<point x="852.0109863281" y="1377.078125"/>
			<point x="692.0109863281" y="1377.078125" type="qcurve" smooth="yes"/>
			<point x="504.9107666016" y="1377.078125" type="line"/>
			<point x="470.9107666016" y="1355.078125" type="line"/>
			<point x="467.9107666016" y="764" type="line"/>
			<point x="469.9107666016" y="132" type="line"/>
			<point x="697.9107666016" y="100" type="line"/>
			<point x="697.9107666016" y="0" type="line"/>
		</contour>
	</outline>
	<anchor name="bottom" x="634" y="0"/>
	<anchor name="top" x="634" y="1500"/>
</glyph>
<glyph name="Q" format="2">
	<unicode hex="0051"/>
	<advance width="1662"/>
	<outline>
		<contour>
			<point x="80" y="746" type="qcurve" smooth="yes"/>
			<point x="80" y="1070"/>
			<point x="513.2062988281" y="1520"/>
			<point x="831.2119140625" y="1520" type="qcurve" smooth="yes"/>
			<point x="1154.2170410156" y="1520"/>
			<point x="1582.423828125" y="1099"/>
			<point x="1582.423828125" y="754" type="qcurve" smooth="yes"/>
			<point x="1582.423828125" y="403"/>
			<point x="1132.2177734375" y="-12"/>
			<point x="830.2121582031" y="-12" type="qcurve" smooth="yes"/>
			<point x="498.9068603516" y="-12"/>
			<point x="80" y="417"/>
		</contour>
		<contour>
			<point x="270.2119140625" y="773" type="qcurve" smooth="yes"/>
			<point x="272.2119140625" y="489.8981933594"/>
			<point x="579.0119628906" y="99.8980102539"/>
			<point x="829.0119628906" y="99.8980102539" type="qcurve" smooth="yes"/>
			<point x="1098.0119628906" y="99.8980102539"/>
			<point x="1390.2119140625" y="459.2247314453"/>
			<point x="1392.2119140625" y="750" type="qcurve" smooth="yes"/>
			<point x="1394.2119140625" y="1021.9793701172"/>
			<point x="1086.2119140625" y="1376.3107299805"/>
			<point x="833.2119140625" y="1376.3107299805" type="qcurve" smooth="yes"/>
			<point x="560.2119140625" y="1376.3107299805"/>
			<point x="268.2119140625" y="1053.4283447266"/>
		</contour>
		<contour>
			<point x="573" y="-39" type="qcurve"/>
			<point x="1290" y="-274" type="line"/>
			<point x="1350" y="-274"/>
			<point x="1442" y="-186"/>
			<point x="1475" y="-132" type="qcurve"/>
			<point x="1565" y="-184" type="line"/>
			<point x="1515" y="-288"/>
			<point x="1371" y="-429"/>
			<point x="1239" y="-429" type="qcurve"/>
			<point x="540" y="-194" type="line"/>
			<point x="479" y="-194"/>
			<point x="363" y="-236"/>
			<point x="306" y="-288" type="qcurve"/>
			<point x="238" y="-224" type="line"/>
			<point x="299" y="-132"/>
			<point x="476" y="-39"/>
		</contour>
		<contour>
			<point x="499.9561157227" y="-88.1130371094" type="line"/>
			<point x="604.7600708008" y="100.8869628906" type="line"/>
			<point x="704.460144043" y="46.3391113281" type="line"/>
			<point x="630.6561889648" y="-109.6608886719" type="line"/>
		</contour>
	</outline>
	<anchor name="bottom" x="832" y="0"/>
	<anchor name="top" x="823" y="1502"/>
</glyph>
<glyph name="R" format="2">
	<unicode hex="0052"/>
	<advance width="1400"/>
	<outline>
		<contour>
			<point x="82" y="0" type="line"/>
			<point x="82" y="100" type="line"/>
			<point x="290" y="136" type="line"/>
			<point x="292" y="755.9995117188" type="line"/>
			<point x="290" y="1352" type="line"/>
			<point x="82" y="1386" type="line"/>
			<point x="82" y="1500" type="line"/>
			<point x="727.9183349609" y="1500" type="line" smooth="yes"/>
			<point x="934.4208984375" y="1500"/>
			<point x="1141.7215576172" y="1301.2499389648"/>
			<point x="1141.7215576172" y="1129.7520751953" type="qcurve" smooth="yes"/>
			<point x="1141.7215576172" y="954.0715942383"/>
			<point x="888.220703125" y="728.1215820312"/>
			<point x="733.9163818359" y="728.1215820312" type="qcurve" smooth="yes"/>
			<point x="664.4162597656" y="728.1215820312"/>
			<point x="436.5052490234" y="738.1215820312"/>
			<point x="379.9051513672" y="743.1215820312" type="qcurve"/>
			<point x="379.9051513672" y="838.8043212891" type="line"/>
			<point x="645.9107666016" y="838.8043212891" type="line" smooth="yes"/>
			<point x="801.9107666016" y="838.8043212891"/>
			<point x="943.9107666016" y="983.0938720703"/>
			<point x="943.9107666016" y="1108.3999023438" type="qcurve" smooth="yes"/>
			<point x="943.9107666016" y="1228.8079833984"/>
			<point x="820.9107666016" y="1377.6063842773"/>
			<point x="683.9107666016" y="1377.6063842773" type="qcurve" smooth="yes"/>
			<point x="500.9107666016" y="1377.6063842773" type="line"/>
			<point x="471.9107666016" y="1359.6063842773" type="line"/>
			<point x="467.9107666016" y="736" type="line"/>
			<point x="469.9107666016" y="136" type="line"/>
			<point x="685.9107666016" y="100" type="line"/>
			<point x="685.9107666016" y="0" type="line"/>
		</contour>
		<contour>
			<point x="614" y="788" type="line"/>
			<point x="802" y="805" type="line"/>
			<point x="1135.0717773438" y="306" type="line" smooth="yes"/>
			<point x="1224" y="173"/>
			<point x="1349.8217773438" y="101"/>
			<point x="1425.8217773438" y="100" type="qcurve"/>
			<point x="1425.8217773438" y="0" type="line"/>
			<point x="1170.9107666016" y="0" type="line"/>
			<point x="1093.9107666016" y="75" type="line"/>
		</contour>
	</outline>
	<anchor name="bottom" x="803" y="0"/>
	<anchor name="top" x="630" y="1500"/>
</glyph>
<glyph name="S" format="2">
	<unicode hex="0053"/>
	<advance width="1107"/>
	<outline>
		<contour>
			<point x="45" y="0" type="line"/>
			<point x="45" y="462.4878540039" type="line"/>
			<point x="159.0633544922" y="462.4878540039" type="line"/>
			<point x="203.0030517578" y="233.3044433594" type="line" smooth="yes"/>
			<point x="257.0030517578" y="177.3044433594"/>
			<point x="470.5700073242" y="87.6392822266"/>
			<point x="595.4040527344" y="87.6392822266" type="qcurve" smooth="yes"/>
			<point x="720.4040527344" y="87.6392822266"/>
			<point x="871.0065917969" y="264.0107421875"/>
			<point x="871.0065917969" y="378.3984375" type="qcurve" smooth="yes"/>
			<point x="871.0065917969" y="524.938293457"/>
			<point x="678.0473022461" y="670.9395751953"/>
			<point x="484.3048095703" y="729.2955322266" type="qcurve" smooth="yes"/>
			<point x="306.1002197266" y="783.4957275391"/>
			<point x="92.9992675781" y="974.8973388672"/>
			<point x="92.9992675781" y="1133.7980957031" type="qcurve" smooth="yes"/>
			<point x="92.9992675781" y="1296.6993408203"/>
			<point x="315.4020996094" y="1520"/>
			<point x="511.4064941406" y="1520" type="qcurve" smooth="yes"/>
			<point x="596.0087890625" y="1520"/>
			<point x="763.9106445312" y="1481.3338012695"/>
			<point x="828.5786132812" y="1454" type="qcurve"/>
			<point x="843.5786132812" y="1487" type="line"/>
			<point x="932.5816650391" y="1487" type="line"/>
			<point x="932.5816650391" y="1066.3690795898" type="line"/>
			<point x="820.90625" y="1066.3690795898" type="line"/>
			<point x="773.5786132812" y="1316.1107788086" type="line" smooth="yes"/>
			<point x="724.5786132812" y="1341.1107788086"/>
			<point x="603.3753662109" y="1393.0085449219"/>
			<point x="516.7081298828" y="1393.0085449219" type="qcurve" smooth="yes"/>
			<point x="386.7081298828" y="1393.0085449219"/>
			<point x="264.0063476562" y="1252.7855224609"/>
			<point x="264.0063476562" y="1158.7447509766" type="qcurve" smooth="yes"/>
			<point x="264.0063476562" y="1070.8474731445"/>
			<point x="412.4657592773" y="940.483215332"/>
			<point x="616.5086669922" y="871.5032958984" type="qcurve" smooth="yes"/>
			<point x="805.5894165039" y="806.4791870117"/>
			<point x="1055.3143310547" y="604.40234375"/>
			<point x="1055.3143310547" y="420.3013916016" type="qcurve" smooth="yes"/>
			<point x="1055.3143310547" y="234.1999511719"/>
			<point x="801.7103271484" y="-23"/>
			<point x="597.0063476562" y="-23" type="qcurve" smooth="yes"/>
			<point x="464.505065918" y="-23"/>
			<point x="253.8048706055" y="39.6664428711"/>
			<point x="185.0030517578" y="93" type="qcurve"/>
			<point x="142.1000366211" y="0" type="line"/>
		</contour>
	</outline>
	<anchor name="bottom" x="599" y="0"/>
	<anchor name="top" x="514" y="1500"/>
</glyph>
<glyph name="T" format="2">
	<unicode hex="0054"/>
	<advance width="1297"/>
	<outline>
		<contour>
			<point x="42.9993896484" y="1055.2991943359" type="line"/>
			<point x="42.9993896484" y="1500" type="line"/>
			<point x="1256.9128417969" y="1500" type="line"/>
			<point x="1256.9128417969" y="1055.2991943359" type="line"/>
			<point x="1146.9097900391" y="1055.2991943359" type="line"/>
			<point x="1111.9097900391" y="1385.3041992188" type="line"/>
			<point x="758.9114990234" y="1385.3041992188" type="line"/>
			<point x="739.9114990234" y="1365.3041992188" type="line"/>
			<point x="737.9114990234" y="770.0238647461" type="line"/>
			<point x="739.9114990234" y="136" type="line"/>
			<point x="956.9114990234" y="100" type="line"/>
			<point x="956.9114990234" y="0" type="line"/>
			<point x="341.0007324219" y="0" type="line"/>
			<point x="341.0007324219" y="100" type="line"/>
			<point x="560.0007324219" y="136" type="line"/>
			<point x="562.0007324219" y="770.0238647461" type="line"/>
			<point x="560.0007324219" y="1365.3041992188" type="line"/>
			<point x="551.0007324219" y="1385.3041992188" type="line"/>
			<point x="188.0024414062" y="1385.3041992188" type="line"/>
			<point x="153.0024414062" y="1055.2991943359" type="line"/>
		</contour>
	</outline>
	<anchor name="bottom" x="644" y="0"/>
	<anchor name="center" x="644" y="750"/>
	<anchor name="top" x="644" y="1500"/>
	<anchor name="cy_descender" x="951" y="100"/>
</glyph>
<glyph name="U" format="2">
	<unicode hex="0055"/>
	<advance width="1583"/>
	<outline>
		<contour>
			<point x="74" y="1386" type="line"/>
			<point x="74" y="1500" type="line"/>
			<point x="667.0114746094" y="1500" type="line"/>
			<point x="667.0114746094" y="1386" type="line"/>
			<point x="460.0114746094" y="1352" type="line"/>
			<point x="455.0114746094" y="794" type="line"/>
			<point x="459.0114746094" y="503.4674682617" type="line" smooth="yes"/>
			<point x="458.6593017578" y="318.4674682617"/>
			<point x="635.5123291016" y="113.4691772461"/>
			<point x="832.5123291016" y="113.4691772461" type="qcurve" smooth="yes"/>
			<point x="1008.5123291016" y="113.4691772461"/>
			<point x="1188.7662353516" y="311.4674682617"/>
			<point x="1190.0139160156" y="522.4674682617" type="qcurve" smooth="yes"/>
			<point x="1192.0139160156" y="794" type="line"/>
			<point x="1190.0139160156" y="1352" type="line"/>
			<point x="972.0139160156" y="1386" type="line"/>
			<point x="972.0139160156" y="1500" type="line"/>
			<point x="1530.5640258789" y="1500" type="line"/>
			<point x="1530.5640258789" y="1386" type="line"/>
			<point x="1329.5640258789" y="1352" type="line"/>
			<point x="1327.5640258789" y="794" type="line"/>
			<point x="1331.0922851562" y="518" type="line" smooth="yes"/>
			<point x="1334.6205444336" y="258"/>
			<point x="1056.3242797852" y="-31"/>
			<point x="815.9706420898" y="-31" type="qcurve" smooth="yes"/>
			<point x="556.9440917969" y="-31"/>
			<point x="279" y="243"/>
			<point x="282" y="486" type="qcurve" smooth="yes"/>
			<point x="283.9000244141" y="794" type="line"/>
			<point x="282" y="1352" type="line"/>
		</contour>
	</outline>
	<anchor name="bottom" x="832" y="0"/>
	<anchor name="ogonek" x="1042" y="0"/>
	<anchor name="top" x="832" y="1500"/>
	<anchor name="topright" x="1590" y="1500"/>
</glyph>
<glyph name="V" format="2">
	<unicode hex="0056"/>
	<advance width="1411"/>
	<outline>
		<contour>
			<point x="-44.0009765625" y="1386" type="line"/>
			<point x="-44.0009765625" y="1500" type="line"/>
			<point x="501.8098144531" y="1500" type="line"/>
			<point x="501.8098144531" y="1386" type="line"/>
			<point x="333.8098144531" y="1345" type="line"/>
			<point x="548.5933227539" y="785.56640625" type="line"/>
			<point x="708.4783935547" y="389.0092773438" type="line"/>
			<point x="746.9263916016" y="275.0689697266" type="line"/>
			<point x="758.9263916016" y="275.0689697266" type="line"/>
			<point x="795.8442382812" y="389.0092773438" type="line"/>
			<point x="954.6610717773" y="808.5399169922" type="line"/>
			<point x="1153.8631591797" y="1352" type="line"/>
			<point x="966.8631591797" y="1386" type="line"/>
			<point x="966.8631591797" y="1500" type="line"/>
			<point x="1471.3321533203" y="1500" type="line"/>
			<point x="1471.3321533203" y="1386" type="line"/>
			<point x="1293.3321533203" y="1347" type="line"/>
			<point x="1062.301940918" y="755.8890991211" type="line"/>
			<point x="773.3175048828" y="-8" type="line"/>
			<point x="667.1934814453" y="-8" type="line"/>
			<point x="380.1831665039" y="733.5050048828" type="line"/>
			<point x="137.9990234375" y="1347" type="line"/>
		</contour>
	</outline>
	<anchor name="bottom" x="723" y="0"/>
	<anchor name="top" x="733" y="1500"/>
</glyph>
<glyph name="W" format="2">
	<unicode hex="0057"/>
	<advance width="2089"/>
	<outline>
		<contour>
			<point x="636.8196411133" y="-8" type="line"/>
			<point x="370.3479003906" y="731.1036376953" type="line"/>
			<point x="130.9990234375" y="1347" type="line"/>
			<point x="-44.0009765625" y="1386" type="line"/>
			<point x="-44.0009765625" y="1500" type="line"/>
			<point x="505.7496337891" y="1500" type="line"/>
			<point x="505.7496337891" y="1386" type="line"/>
			<point x="324.7496337891" y="1345" type="line"/>
			<point x="524.9084472656" y="789.3640136719" type="line"/>
			<point x="675" y="370" type="line"/>
			<point x="710" y="256" type="line"/>
			<point x="720" y="256" type="line"/>
			<point x="759" y="370" type="line"/>
			<point x="868" y="674" type="line"/>
			<point x="996" y="1038" type="line"/>
			<point x="888.9530029297" y="1355" type="line"/>
			<point x="712.9530029297" y="1394" type="line"/>
			<point x="712.9530029297" y="1500" type="line"/>
			<point x="1246.7603759766" y="1500" type="line"/>
			<point x="1246.7603759766" y="1394" type="line"/>
			<point x="1086.7603759766" y="1353" type="line"/>
			<point x="1265.6417236328" y="803.0382080078" type="line"/>
			<point x="1397" y="370" type="line"/>
			<point x="1430" y="256" type="line"/>
			<point x="1440" y="256" type="line"/>
			<point x="1476" y="370" type="line"/>
			<point x="1629" y="803" type="line"/>
			<point x="1818.3172607422" y="1352" type="line"/>
			<point x="1621.3172607422" y="1386" type="line"/>
			<point x="1621.3172607422" y="1500" type="line"/>
			<point x="2160.225769043" y="1500" type="line"/>
			<point x="2160.225769043" y="1386" type="line"/>
			<point x="1965.225769043" y="1347" type="line"/>
			<point x="1747" y="760" type="line"/>
			<point x="1464.5311889648" y="-8" type="line"/>
			<point x="1359.6922607422" y="-8" type="line"/>
			<point x="1096" y="750" type="line"/>
			<point x="1060" y="866" type="line"/>
			<point x="1050" y="866" type="line"/>
			<point x="1014" y="750" type="line"/>
			<point x="726.7592773438" y="-8" type="line"/>
		</contour>
	</outline>
	<anchor name="bottom" x="1051" y="0"/>
	<anchor name="top" x="1051" y="1500"/>
</glyph>
<glyph name="X" format="2">
	<unicode hex="0058"/>
	<advance width="1334"/>
	<outline>
		<contour>
			<point x="-35.9455566406" y="0" type="line"/>
			<point x="-35.9455566406" y="100" type="line"/>
			<point x="139.0544433594" y="135" type="line"/>
			<point x="575" y="786" type="line"/>
			<point x="215.3721313477" y="1355" type="line"/>
			<point x="23.3721313477" y="1386" type="line"/>
			<point x="23.3721313477" y="1500" type="line"/>
			<point x="591.3848266602" y="1500" type="line"/>
			<point x="591.3848266602" y="1386" type="line"/>
			<point x="418.3848266602" y="1353" type="line"/>
			<point x="647.9973144531" y="995.5719604492" type="line"/>
			<point x="688.1131591797" y="920.2807006836" type="line"/>
			<point x="700.1131591797" y="920.2807006836" type="line"/>
			<point x="751" y="1043" type="line"/>
			<point x="958.0771484375" y="1360" type="line"/>
			<point x="786.0771484375" y="1386" type="line"/>
			<point x="786.0771484375" y="1500" type="line"/>
			<point x="1285.8925170898" y="1500" type="line"/>
			<point x="1285.8925170898" y="1386" type="line"/>
			<point x="1100.8925170898" y="1355" type="line"/>
			<point x="751.3444213867" y="814.9818115234" type="line"/>
			<point x="1193.1668701172" y="135" type="line"/>
			<point x="1391.1668701172" y="100" type="line"/>
			<point x="1391.1668701172" y="0" type="line"/>
			<point x="818.5540771484" y="0" type="line"/>
			<point x="818.5540771484" y="100" type="line"/>
			<point x="991.5540771484" y="135" type="line"/>
			<point x="689.3198852539" y="608.6082763672" type="line"/>
			<point x="653.063659668" y="680.2995605469" type="line"/>
			<point x="641.063659668" y="680.2995605469" type="line"/>
			<point x="577" y="562" type="line"/>
			<point x="282.8698120117" y="130" type="line"/>
			<point x="459.8698120117" y="100" type="line"/>
			<point x="459.8698120117" y="0" type="line"/>
		</contour>
	</outline>
	<anchor name="bottom" x="661" y="0"/>
	<anchor name="top" x="673" y="1500"/>
	<anchor name="cy_descender" x="1386" y="100"/>
	<anchor name="center" x="663" y="811"/>
</glyph>
<glyph name="Y" format="2">
	<unicode hex="0059"/>
	<advance width="1263"/>
	<outline>
		<contour>
			<point x="328.4044189453" y="0" type="line"/>
			<point x="328.4044189453" y="100" type="line"/>
			<point x="549.4044189453" y="135" type="line"/>
			<point x="551.4044189453" y="639.4745483398" type="line"/>
			<point x="369.5888671875" y="973.0252685547" type="line"/>
			<point x="131.9990234375" y="1360" type="line"/>
			<point x="-44.0009765625" y="1386" type="line"/>
			<point x="-44.0009765625" y="1500" type="line"/>
			<point x="511.9088134766" y="1500" type="line"/>
			<point x="511.9088134766" y="1386" type="line"/>
			<point x="339.9088134766" y="1351" type="line"/>
			<point x="516.6796875" y="1031.9073486328" type="line"/>
			<point x="653.1786499023" y="779.9905395508" type="line"/>
			<point x="665.1786499023" y="779.9905395508" type="line"/>
			<point x="800.8662109375" y="1050.8215332031" type="line"/>
			<point x="965.0763549805" y="1358" type="line"/>
			<point x="771.0763549805" y="1386" type="line"/>
			<point x="771.0763549805" y="1500" type="line"/>
			<point x="1300.224609375" y="1500" type="line"/>
			<point x="1300.224609375" y="1386" type="line"/>
			<point x="1118.224609375" y="1359" type="line"/>
			<point x="911.7023925781" y="1017.7153320312" type="line"/>
			<point x="726.4392700195" y="666.9216308594" type="line"/>
			<point x="728.6153564453" y="135" type="line"/>
			<point x="946.6153564453" y="100" type="line"/>
			<point x="946.6153564453" y="0" type="line"/>
		</contour>
	</outline>
	<anchor name="bottom" x="636" y="0"/>
	<anchor name="top" x="640" y="1500"/>
	<anchor name="tonos" x="-100" y="1500"/>
	<anchor name="center" x="636" y="582"/>
</glyph>
<glyph name="Z" format="2">
	<unicode hex="005A"/>
	<advance width="1199"/>
	<outline>
		<contour>
			<point x="68.8012695312" y="0" type="line"/>
			<point x="33.4295043945" y="88.876159668" type="line"/>
			<point x="902.8678588867" y="1371.9520263672" type="line"/>
			<point x="888.8678588867" y="1387.9520263672" type="line"/>
			<point x="248.6687011719" y="1387.9520263672" type="line"/>
			<point x="209.1772460938" y="1068.5289306641" type="line"/>
			<point x="90.6656494141" y="1068.5289306641" type="line"/>
			<point x="90.6656494141" y="1500" type="line"/>
			<point x="1110.0561523438" y="1500" type="line"/>
			<point x="1110.0561523438" y="1409.3172607422" type="line"/>
			<point x="237.2016601562" y="118.2240600586" type="line"/>
			<point x="251.2016601562" y="102.2240600586" type="line"/>
			<point x="989.9268798828" y="102.2240600586" type="line"/>
			<point x="1066.2977294922" y="376.4099731445" type="line"/>
			<point x="1171.7424926758" y="376.4099731445" type="line"/>
			<point x="1128.9299316406" y="0" type="line"/>
		</contour>
	</outline>
	<anchor name="bottom" x="583" y="0"/>
	<anchor name="top" x="583" y="1500"/>
	<anchor name="_liga" x="0" y="0"/>
</glyph>
<glyph name="a" format="2">
	<unicode hex="0061"/>
	<advance width="1038"/>
	<outline>
		<contour>
			<point x="37" y="256.1190185547" type="qcurve" smooth="yes"/>
			<point x="37" y="382.0540771484"/>
			<point x="416" y="583"/>
			<point x="780" y="630" type="qcurve"/>
			<point x="772.1905517578" y="540.9858398438" type="line"/>
			<point x="476.1905517578" y="536.7819213867"/>
			<point x="217.6477050781" y="411.3641967773"/>
			<point x="217.6477050781" y="290.3707275391" type="qcurve" smooth="yes"/>
			<point x="217.6477050781" y="190.1411743164"/>
			<point x="341.1429443359" y="100.9210205078"/>
			<point x="428.1429443359" y="100.9210205078" type="qcurve" smooth="yes"/>
			<point x="507.1429443359" y="100.9210205078"/>
			<point x="650.8972167969" y="208.5616455078"/>
			<point x="676.8972167969" y="251.8692016602" type="qcurve"/>
			<point x="679.8972167969" y="633.7233276367" type="line" smooth="yes"/>
			<point x="680.8972167969" y="792.303894043"/>
			<point x="583.8550415039" y="908.0971679688"/>
			<point x="468.1219482422" y="908.0971679688" type="qcurve" smooth="yes"/>
			<point x="392.4957885742" y="908.0971679688"/>
			<point x="290.6959228516" y="872.7737426758"/>
			<point x="273.3333740234" y="853.4962768555" type="qcurve"/>
			<point x="309.442199707" y="831.1381835938"/>
			<point x="346.2860107422" y="775.5389404297"/>
			<point x="346.2592163086" y="743.7503662109" type="qcurve" smooth="yes"/>
			<point x="346.9658813477" y="712.2741699219"/>
			<point x="291.9944458008" y="652.2932128906"/>
			<point x="242.5277709961" y="652.2932128906" type="qcurve" smooth="yes"/>
			<point x="195.575378418" y="652.2932128906"/>
			<point x="127.1087036133" y="714.5770263672"/>
			<point x="127.1087036133" y="778.5579833984" type="qcurve" smooth="yes"/>
			<point x="127.1087036133" y="894.1446533203"/>
			<point x="329.6990966797" y="1022.6018066406"/>
			<point x="480.4077148438" y="1022.6018066406" type="qcurve" smooth="yes"/>
			<point x="646.2268066406" y="1022.6018066406"/>
			<point x="836.5887451172" y="855.3888549805"/>
			<point x="838.5887451172" y="643.4550170898" type="qcurve" smooth="yes"/>
			<point x="843.5887451172" y="115.994140625" type="line"/>
			<point x="991.5887451172" y="80.994140625" type="line"/>
			<point x="991.5887451172" y="0" type="line"/>
			<point x="743.1905517578" y="0" type="line"/>
			<point x="698.1905517578" y="50" type="line"/>
			<point x="684.1905517578" y="142.8673706055" type="line"/>
			<point x="657.1181640625" y="90.6854248047"/>
			<point x="448.201965332" y="-15"/>
			<point x="318.135925293" y="-15" type="qcurve" smooth="yes"/>
			<point x="196.5816040039" y="-15"/>
			<point x="37" y="130.4255981445"/>
		</contour>
	</outline>
	<anchor name="bottom" x="548" y="0"/>
	<anchor name="ogonek" x="878" y="0"/>
	<anchor name="top" x="514" y="1000"/>
</glyph>
<glyph name="b" format="2">
	<unicode hex="0062"/>
	<advance width="1143"/>
	<outline>
		<contour>
			<point x="162.154296875" y="0" type="line"/>
			<point x="173.154296875" y="426.9993896484" type="line"/>
			<point x="161.4476318359" y="1375.4052734375" type="line"/>
			<point x="-5.5523681641" y="1405.4052734375" type="line"/>
			<point x="-5.5523681641" y="1500" type="line"/>
			<point x="274.9562988281" y="1534" type="line"/>
			<point x="305.9562988281" y="1534" type="line"/>
			<point x="333.9562988281" y="1502" type="line"/>
			<point x="331.9562988281" y="866.1832885742" type="line"/>
			<point x="381.7816162109" y="932.0844726562"/>
			<point x="548.8441162109" y="1019.3969726562"/>
			<point x="658.2946777344" y="1019.3969726562" type="qcurve" smooth="yes"/>
			<point x="845.8316650391" y="1019.3969726562"/>
			<point x="1075.4613037109" y="754.6501464844"/>
			<point x="1075.4613037109" y="528.4936523438" type="qcurve" smooth="yes"/>
			<point x="1075.4613037109" y="283.5419921875"/>
			<point x="838.0202636719" y="-16"/>
			<point x="614.2523193359" y="-16" type="qcurve" smooth="yes"/>
			<point x="524.0792236328" y="-16"/>
			<point x="369.147277832" y="42"/>
			<point x="325.158203125" y="75.7830810547" type="qcurve"/>
			<point x="247.158203125" y="0" type="line"/>
		</contour>
		<contour>
			<point x="329.9562988281" y="449.3851928711" type="line"/>
			<point x="331.9562988281" y="230.1354370117" type="line"/>
			<point x="364.8299560547" y="174.2185058594"/>
			<point x="511.1003417969" y="93.8186645508"/>
			<point x="608.0031738281" y="93.8186645508" type="qcurve" smooth="yes"/>
			<point x="745.0031738281" y="93.8186645508"/>
			<point x="897.0192871094" y="317.653137207"/>
			<point x="897.0192871094" y="503.1081542969" type="qcurve" smooth="yes"/>
			<point x="897.0192871094" y="679.4547119141"/>
			<point x="743.3342285156" y="890.6713867188"/>
			<point x="624.3342285156" y="890.6713867188" type="qcurve" smooth="yes"/>
			<point x="518.4519042969" y="890.6713867188"/>
			<point x="372.1619873047" y="811.1745605469"/>
			<point x="331.9562988281" y="751.3724365234" type="qcurve"/>
		</contour>
	</outline>
	<anchor name="bottom" x="571" y="0"/>
	<anchor name="top" x="571" y="1533"/>
</glyph>
<glyph name="c" format="2">
	<unicode hex="0063"/>
	<advance width="971"/>
	<outline>
		<contour>
			<point x="64" y="488.2568359375" type="qcurve" smooth="yes"/>
			<point x="64" y="733.2670898438"/>
			<point x="328.5869140625" y="1020.493347168"/>
			<point x="525.7330322266" y="1020.493347168" type="qcurve" smooth="yes"/>
			<point x="625.0041503906" y="1020.493347168"/>
			<point x="743.4862060547" y="974.493347168"/>
			<point x="774.9794921875" y="943.493347168" type="qcurve"/>
			<point x="805.8359375" y="996.7875366211" type="line"/>
			<point x="893.8101806641" y="996.7875366211" type="line"/>
			<point x="893.8101806641" y="662.0008544922" type="line"/>
			<point x="798.9384765625" y="660.0008544922" type="line"/>
			<point x="762.9384765625" y="758.5892333984" type="line" smooth="yes"/>
			<point x="737.9384765625" y="834.5892333984"/>
			<point x="629.1618652344" y="912.1932983398"/>
			<point x="533.9285888672" y="912.1932983398" type="qcurve" smooth="yes"/>
			<point x="409.9285888672" y="912.1932983398"/>
			<point x="246.6820068359" y="698.8388061523"/>
			<point x="246.6820068359" y="506.9019165039" type="qcurve" smooth="yes"/>
			<point x="246.6820068359" y="336.7601928711"/>
			<point x="427.9901123047" y="111.4418945312"/>
			<point x="579.9901123047" y="111.4418945312" type="qcurve" smooth="yes"/>
			<point x="695.9888305664" y="111.4418945312"/>
			<point x="846.9060058594" y="176.4750366211"/>
			<point x="899.7513427734" y="216.2227172852" type="qcurve"/>
			<point x="950.8643798828" y="150" type="line"/>
			<point x="899.3258056641" y="82"/>
			<point x="713.0905761719" y="-22"/>
			<point x="557.6048583984" y="-22" type="qcurve" smooth="yes"/>
			<point x="350.3431396484" y="-22"/>
			<point x="64" y="258.9422607422"/>
		</contour>
	</outline>
	<anchor name="bottom" x="563" y="0"/>
	<anchor name="top" x="534" y="1000"/>
</glyph>
<glyph name="d" format="2">
	<unicode hex="0064"/>
	<advance width="1197"/>
	<outline>
		<contour>
			<point x="68" y="479.2045288086" type="qcurve" smooth="yes"/>
			<point x="68" y="722.6419067383"/>
			<point x="331.8197021484" y="1019.3969726562"/>
			<point x="553.5364990234" y="1019.3969726562" type="qcurve" smooth="yes"/>
			<point x="628.4705810547" y="1019.3969726562"/>
			<point x="775.9666748047" y="979.806640625"/>
			<point x="825.0145263672" y="948.6138916016" type="qcurve"/>
			<point x="819.8023681641" y="1382.005859375" type="line"/>
			<point x="652.8023681641" y="1412.005859375" type="line"/>
			<point x="652.8023681641" y="1500" type="line"/>
			<point x="935.8380126953" y="1534" type="line"/>
			<point x="966.6739501953" y="1534" type="line"/>
			<point x="991.4434814453" y="1502" type="line"/>
			<point x="988.4434814453" y="530.1924438477" type="line"/>
			<point x="997.5255126953" y="115.994140625" type="line"/>
			<point x="1146.5255126953" y="80.994140625" type="line"/>
			<point x="1146.5255126953" y="0" type="line"/>
			<point x="900.1202392578" y="0" type="line"/>
			<point x="849.0689697266" y="60" type="line"/>
			<point x="835.9664306641" y="137.9476318359" type="line"/>
			<point x="789.4753417969" y="76.0728759766"/>
			<point x="611.1741943359" y="-18"/>
			<point x="495.6573486328" y="-18" type="qcurve" smooth="yes"/>
			<point x="307.9680175781" y="-18"/>
			<point x="68" y="255.5718383789"/>
		</contour>
		<contour>
			<point x="250.4801025391" y="497.9223632812" type="qcurve" smooth="yes"/>
			<point x="250.4801025391" y="308.9250488281"/>
			<point x="411.4836425781" y="114.5376586914"/>
			<point x="543.4836425781" y="114.5376586914" type="qcurve" smooth="yes"/>
			<point x="640.5993652344" y="114.5376586914"/>
			<point x="789.6772460938" y="196.4384155273"/>
			<point x="833.9635009766" y="256.9456787109" type="qcurve"/>
			<point x="836.9635009766" y="529.7948608398" type="line"/>
			<point x="830.9635009766" y="800.7922363281" type="line"/>
			<point x="797.060546875" y="853.0009765625"/>
			<point x="667.6253662109" y="914.8133544922"/>
			<point x="576.2611083984" y="914.8133544922" type="qcurve" smooth="yes"/>
			<point x="425.2611083984" y="914.8133544922"/>
			<point x="250.4801025391" y="678.9196777344"/>
		</contour>
	</outline>
	<anchor name="bottom" x="604" y="0"/>
	<anchor name="center" x="876" y="1202"/>
	<anchor name="top" x="604" y="1534"/>
	<anchor name="topright" x="961" y="1000"/>
	<anchor name="liga" x="1207" y="0"/>
</glyph>
<glyph name="e" format="2">
	<unicode hex="0065"/>
	<advance width="1001"/>
	<outline>
		<contour>
			<point x="64" y="499.201965332" type="qcurve" smooth="yes"/>
			<point x="64" y="716.1704101562"/>
			<point x="326.7588500977" y="1020.1921386719"/>
			<point x="544.022644043" y="1020.1921386719" type="qcurve" smooth="yes"/>
			<point x="740.2321166992" y="1020.1921386719"/>
			<point x="954.9967041016" y="803.8428955078"/>
			<point x="972.7529296875" y="583.3992919922" type="qcurve"/>
			<point x="972.8538818359" y="521.8469238281" type="line"/>
			<point x="166" y="528" type="line"/>
			<point x="166" y="624" type="line"/>
			<point x="808.6538085938" y="619.6958007812" type="line"/>
			<point x="789.7358398438" y="772.6577758789"/>
			<point x="644.7984619141" y="908.9473266602"/>
			<point x="529.7984619141" y="908.9473266602" type="qcurve" smooth="yes"/>
			<point x="394.7984619141" y="908.9473266602"/>
			<point x="243.0953369141" y="706.1897583008"/>
			<point x="244.0953369141" y="521.1924438477" type="qcurve" smooth="yes"/>
			<point x="245.0953369141" y="319.1951293945"/>
			<point x="434.2000732422" y="112.4197998047"/>
			<point x="587.2000732422" y="112.4197998047" type="qcurve" smooth="yes"/>
			<point x="684.7556152344" y="112.4197998047"/>
			<point x="838.2698364258" y="158.7163085938"/>
			<point x="884.9051513672" y="196.3866577148" type="qcurve"/>
			<point x="930.5315551758" y="133.8895263672" type="line"/>
			<point x="889.5974731445" y="68.6040649414"/>
			<point x="717.3743896484" y="-22"/>
			<point x="588.7830810547" y="-22" type="qcurve" smooth="yes"/>
			<point x="352.0791015625" y="-22"/>
			<point x="64" y="269.4754638672"/>
		</contour>
	</outline>
	<anchor name="bottom" x="578" y="0"/>
	<anchor name="ogonek" x="744" y="0"/>
	<anchor name="top" x="539" y="1000"/>
</glyph>
<glyph name="g" format="2">
	<unicode hex="0067"/>
	<advance width="1050"/>
	<outline>
		<contour>
			<point x="27.9466552734" y="-269.4530639648" type="qcurve" smooth="yes"/>
			<point x="27.9466552734" y="-185.9927978516"/>
			<point x="126" y="-51"/>
			<point x="233" y="2" type="qcurve"/>
			<point x="340" y="-21" type="line"/>
			<point x="240" y="-84"/>
			<point x="191.1600341797" y="-196.4779052734"/>
			<point x="191.1600341797" y="-242.451171875" type="qcurve" smooth="yes"/>
			<point x="191.1600341797" y="-305.5469970703"/>
			<point x="348.0062255859" y="-409.6022949219"/>
			<point x="525.2844238281" y="-409.6022949219" type="qcurve" smooth="yes"/>
			<point x="704.8739013672" y="-409.6022949219"/>
			<point x="869.0091552734" y="-317.546081543"/>
			<point x="869.0091552734" y="-245.948425293" type="qcurve" smooth="yes"/>
			<point x="869.0091552734" y="-205.0561523438"/>
			<point x="783.9921875" y="-158.1294555664"/>
			<point x="527.7377929688" y="-157.9329223633" type="qcurve" smooth="yes"/>
			<point x="339.4835205078" y="-158.0392456055"/>
			<point x="84.3406982422" y="-51.2723388672"/>
			<point x="84.3406982422" y="86.5737304688" type="qcurve" smooth="yes"/>
			<point x="84.3406982422" y="174.0625"/>
			<point x="214.3844604492" y="300.7182006836"/>
			<point x="304.61328125" y="324.1444702148" type="qcurve"/>
			<point x="340.7714233398" y="270.5529174805" type="line"/>
			<point x="294.4448852539" y="233.0582885742"/>
			<point x="237.4378662109" y="175.4030761719"/>
			<point x="237.4378662109" y="119.4396362305" type="qcurve" smooth="yes"/>
			<point x="237.4378662109" y="68.3256835938"/>
			<point x="354.3232421875" y="35.3029174805"/>
			<point x="553.3732910156" y="35.5204467773" type="qcurve" smooth="yes"/>
			<point x="800.1016845703" y="35.3957519531"/>
			<point x="1054.0797119141" y="-80.1256103516"/>
			<point x="1053.9787597656" y="-199.7985839844" type="qcurve" smooth="yes"/>
			<point x="1053.8778076172" y="-332.8596191406"/>
			<point x="809.7067871094" y="-518"/>
			<point x="512.8724365234" y="-518" type="qcurve" smooth="yes"/>
			<point x="270.5079345703" y="-518"/>
			<point x="27.9466552734" y="-385.3440551758"/>
		</contour>
		<contour>
			<point x="105" y="622.1870727539" type="qcurve" smooth="yes"/>
			<point x="105" y="807.1870727539"/>
			<point x="329.6866455078" y="1021.3969726562"/>
			<point x="510.8424072266" y="1021.3969726562" type="qcurve" smooth="yes"/>
			<point x="694.3389892578" y="1021.3969726562"/>
			<point x="921.6904296875" y="823.1870727539"/>
			<point x="921.6904296875" y="627.1870727539" type="qcurve" smooth="yes"/>
			<point x="921.6904296875" y="448.780090332"/>
			<point x="693.9146728516" y="202.6585693359"/>
			<point x="516.4086914062" y="202.6585693359" type="qcurve" smooth="yes"/>
			<point x="332.8088378906" y="202.6585693359"/>
			<point x="105" y="423.1870727539"/>
		</contour>
		<contour>
			<point x="280.2000732422" y="632.4725341797" type="qcurve" smooth="yes"/>
			<point x="280.2000732422" y="469.0762939453"/>
			<point x="406.8724365234" y="307.8591918945"/>
			<point x="511.8724365234" y="307.8591918945" type="qcurve" smooth="yes"/>
			<point x="624.8724365234" y="307.8591918945"/>
			<point x="744.2884521484" y="458.0762939453"/>
			<point x="744.2884521484" y="622.4725341797" type="qcurve" smooth="yes"/>
			<point x="744.2884521484" y="756.0702514648"/>
			<point x="618.8314208984" y="905.1853027344"/>
			<point x="513.8314208984" y="905.1853027344" type="qcurve" smooth="yes"/>
			<point x="401.8314208984" y="905.1853027344"/>
			<point x="280.2000732422" y="769.8701171875"/>
		</contour>
		<contour>
			<point x="540" y="925" type="line"/>
			<point x="540" y="1000" type="line"/>
			<point x="1070.4244384766" y="999.3969726562" type="line"/>
			<point x="1070.4244384766" y="861.2073974609" type="line"/>
		</contour>
	</outline>
	<anchor name="bottom" x="524" y="-416"/>
	<anchor name="top" x="484" y="1000"/>
</glyph>
<glyph name="k" format="2">
	<unicode hex="006B"/>
	<advance width="1087"/>
	<outline>
		<contour>
			<point x="76" y="0" type="line"/>
			<point x="76" y="80.994140625" type="line"/>
			<point x="218" y="115.994140625" type="line"/>
			<point x="220" y="552" type="line"/>
			<point x="218" y="1375.005859375" type="line"/>
			<point x="52" y="1405.005859375" type="line"/>
			<point x="52" y="1500" type="line"/>
			<point x="329.3981933594" y="1534" type="line"/>
			<point x="361.3981933594" y="1534" type="line"/>
			<point x="389.3981933594" y="1502" type="line"/>
			<point x="387.3981933594" y="532" type="line"/>
			<point x="389.3981933594" y="115.994140625" type="line"/>
			<point x="527.3981933594" y="80.994140625" type="line"/>
			<point x="527.3981933594" y="0" type="line"/>
		</contour>
		<contour>
			<point x="303" y="376" type="line"/>
			<point x="303" y="490" type="line"/>
			<point x="724.6712036133" y="878.4028320312" type="line"/>
			<point x="591.6712036133" y="908.4028320312" type="line"/>
			<point x="591.6712036133" y="999.3969726562" type="line"/>
			<point x="1043.0426025391" y="999.3969726562" type="line"/>
			<point x="1043.0426025391" y="908.4028320312" type="line"/>
			<point x="852.0426025391" y="873.4028320312" type="line"/>
		</contour>
		<contour>
			<point x="446.9130249023" y="597.9741821289" type="line"/>
			<point x="561.0067749023" y="700.2971801758" type="line"/>
			<point x="967.232421875" y="122.994140625" type="line"/>
			<point x="1135.232421875" y="80.994140625" type="line"/>
			<point x="1135.232421875" y="0" type="line"/>
			<point x="893.3752441406" y="0" type="line"/>
			<point x="859.3752441406" y="-31.005859375" type="line"/>
			<point x="815.3752441406" y="58.994140625" type="line"/>
		</contour>
	</outline>
	<anchor name="bottom" x="608" y="0"/>
	<anchor name="top" x="578" y="1534"/>
</glyph>
<glyph name="m" format="2">
	<unicode hex="006D"/>
	<advance width="1930"/>
	<outline>
		<contour>
			<point x="76" y="0" type="line"/>
			<point x="76" y="80.994140625" type="line"/>
			<point x="224" y="115.994140625" type="line"/>
			<point x="226" y="552" type="line"/>
			<point x="224" y="840.7040405273" type="line"/>
			<point x="76" y="870.7040405273" type="line"/>
			<point x="76" y="965.6981811523" type="line"/>
			<point x="333.9029541016" y="999.6981811523" type="line"/>
			<point x="368.9029541016" y="972.6981811523" type="line"/>
			<point x="393.9029541016" y="871.6981811523" type="line"/>
			<point x="454.2686767578" y="938.6981811523"/>
			<point x="638.8610839844" y="1020.6981811523"/>
			<point x="740.6115722656" y="1020.6981811523" type="qcurve" smooth="yes"/>
			<point x="867.4820556641" y="1020.6981811523"/>
			<point x="1015.9925537109" y="930.6981811523"/>
			<point x="1041.3677978516" y="851.5248413086" type="qcurve"/>
			<point x="1099.2287597656" y="924.6981811523"/>
			<point x="1294.7297363281" y="1019.6981811523"/>
			<point x="1400.2687988281" y="1019.6981811523" type="qcurve" smooth="yes"/>
			<point x="1559.8802490234" y="1019.6981811523"/>
			<point x="1715.6936035156" y="870.6981811523"/>
			<point x="1715.6936035156" y="739.6981811523" type="qcurve" smooth="yes"/>
			<point x="1715.6936035156" y="681.6622314453"/>
			<point x="1711.0957641602" y="545.3734130859"/>
			<point x="1710.7945556641" y="552" type="qcurve" smooth="yes"/>
			<point x="1715.7945556641" y="115.994140625" type="line"/>
			<point x="1863.7945556641" y="80.994140625" type="line"/>
			<point x="1863.7945556641" y="0" type="line"/>
			<point x="1386.3963623047" y="0" type="line"/>
			<point x="1386.3963623047" y="80.994140625" type="line"/>
			<point x="1544.3963623047" y="115.994140625" type="line"/>
			<point x="1546.3963623047" y="552" type="line"/>
			<point x="1546.3963623047" y="710.3941650391" type="line" smooth="yes"/>
			<point x="1546.3963623047" y="788.3941650391"/>
			<point x="1440.3963623047" y="884.3941650391"/>
			<point x="1349.3963623047" y="884.3941650391" type="qcurve" smooth="yes"/>
			<point x="1261.2954101562" y="884.3941650391"/>
			<point x="1104.2478027344" y="800.3560791016"/>
			<point x="1056.2478027344" y="734.3560791016" type="qcurve"/>
			<point x="1055.2478027344" y="682.6213378906"/>
			<point x="1051.3487548828" y="547.7830810547"/>
			<point x="1051.2478027344" y="552" type="qcurve" smooth="yes"/>
			<point x="1056.2478027344" y="115.994140625" type="line"/>
			<point x="1204.2478027344" y="80.994140625" type="line"/>
			<point x="1204.2478027344" y="0" type="line"/>
			<point x="726.6477050781" y="0" type="line"/>
			<point x="726.6477050781" y="80.994140625" type="line"/>
			<point x="884.6477050781" y="115.994140625" type="line"/>
			<point x="886.6477050781" y="552" type="line"/>
			<point x="886.6477050781" y="710.3941650391" type="line" smooth="yes"/>
			<point x="886.6477050781" y="788.3941650391"/>
			<point x="773.6477050781" y="884.3941650391"/>
			<point x="689.6477050781" y="884.3941650391" type="qcurve" smooth="yes"/>
			<point x="601.6477050781" y="884.3941650391"/>
			<point x="440.9029541016" y="797.3560791016"/>
			<point x="392.9029541016" y="729.3560791016" type="qcurve"/>
			<point x="391.9029541016" y="552" type="line"/>
			<point x="393.9029541016" y="115.994140625" type="line"/>
			<point x="531.9029541016" y="80.994140625" type="line"/>
			<point x="531.9029541016" y="0" type="line"/>
		</contour>
	</outline>
	<anchor name="bottom" x="958" y="0"/>
	<anchor name="top" x="958" y="1000"/>
</glyph>
<glyph name="n" format="2">
	<unicode hex="006E"/>
	<advance width="1267"/>
	<outline>
		<contour>
			<point x="76" y="0" type="line"/>
			<point x="76" y="80.994140625" type="line"/>
			<point x="224" y="115.994140625" type="line"/>
			<point x="226" y="548.9879150391" type="line"/>
			<point x="224" y="840.7040405273" type="line"/>
			<point x="76" y="870.7040405273" type="line"/>
			<point x="76" y="965.6981811523" type="line"/>
			<point x="335.8115234375" y="999.6981811523" type="line"/>
			<point x="370.8115234375" y="972.6981811523" type="line"/>
			<point x="396.0134277344" y="868.2219848633" type="line"/>
			<point x="456.9848632812" y="937.8181762695"/>
			<point x="640.7601318359" y="1020.6981811523"/>
			<point x="739.8953857422" y="1020.6981811523" type="qcurve" smooth="yes"/>
			<point x="898.3963623047" y="1020.6981811523"/>
			<point x="1059.0078125" y="872.7172241211"/>
			<point x="1059.0078125" y="741.7077026367" type="qcurve" smooth="yes"/>
			<point x="1059.0078125" y="702.8645019531"/>
			<point x="1048.2878417969" y="565.1685791016"/>
			<point x="1048.0078125" y="548.9879150391" type="qcurve" smooth="yes"/>
			<point x="1053.0078125" y="115.994140625" type="line"/>
			<point x="1201.0078125" y="80.994140625" type="line"/>
			<point x="1201.0078125" y="0" type="line"/>
			<point x="723.00390625" y="0" type="line"/>
			<point x="723.00390625" y="80.994140625" type="line"/>
			<point x="881.00390625" y="115.994140625" type="line"/>
			<point x="883.00390625" y="595.1390380859" type="line"/>
			<point x="883.00390625" y="714.4082641602" type="line" smooth="yes"/>
			<point x="883.00390625" y="796.7489624023"/>
			<point x="775.00390625" y="888.76953125"/>
			<point x="686.00390625" y="888.76953125" type="qcurve" smooth="yes"/>
			<point x="597.2972412109" y="888.76953125"/>
			<point x="438.388671875" y="803.1337280273"/>
			<point x="394.00390625" y="735.379699707" type="qcurve"/>
			<point x="393.00390625" y="595.1390380859" type="line"/>
			<point x="395.00390625" y="115.994140625" type="line"/>
			<point x="533.00390625" y="80.994140625" type="line"/>
			<point x="533.00390625" y="0" type="line"/>
		</contour>
	</outline>
	<anchor name="bottom" x="632" y="0"/>
	<anchor name="top" x="632" y="1000"/>
	<anchor name="liga" x="1264" y="0"/>
</glyph>
<glyph name="o" format="2">
	<unicode hex="006F"/>
	<advance width="1161"/>
	<outline>
		<contour>
			<point x="64" y="499.6984863281" type="qcurve" smooth="yes"/>
			<point x="64" y="718.1561889648"/>
			<point x="347.5866699219" y="1021.2841796875"/>
			<point x="578.0821533203" y="1021.2841796875" type="qcurve" smooth="yes"/>
			<point x="811.7897949219" y="1021.2841796875"/>
			<point x="1096.7700195312" y="737.2525634766"/>
			<point x="1096.7700195312" y="505.6984863281" type="qcurve" smooth="yes"/>
			<point x="1096.7700195312" y="288.2407836914"/>
			<point x="816.6888427734" y="-21.8974609375"/>
			<point x="584.0821533203" y="-21.8974609375" type="qcurve" smooth="yes"/>
			<point x="351.34375" y="-21.8974609375"/>
			<point x="64" y="267.1444091797"/>
		</contour>
		<contour>
			<point x="241.0762939453" y="516.6984863281" type="qcurve" smooth="yes"/>
			<point x="242.4059448242" y="334.701171875"/>
			<point x="424.0718994141" y="80.8427124023"/>
			<point x="577.0718994141" y="80.8427124023" type="qcurve" smooth="yes"/>
			<point x="740.0718994141" y="80.8427124023"/>
			<point x="914.0880126953" y="314.701171875"/>
			<point x="914.0880126953" y="503.6984863281" type="qcurve" smooth="yes"/>
			<point x="914.0880126953" y="678.6958007812"/>
			<point x="732.0718994141" y="904.2806396484"/>
			<point x="578.0718994141" y="904.2806396484" type="qcurve" smooth="yes"/>
			<point x="413.0718994141" y="904.2806396484"/>
			<point x="239.7466430664" y="697.6958007812"/>
		</contour>
	</outline>
	<anchor name="bottom" x="584" y="0"/>
	<anchor name="center" x="584" y="500"/>
	<anchor name="ogonek" x="747" y="0"/>
	<anchor name="top" x="584" y="1000"/>
	<anchor name="topright" x="751" y="1000"/>
	<anchor name="GRKtop" x="584" y="1000"/>
	<anchor name="yu_dash" x="150" y="500"/>
</glyph>
<glyph name="p" format="2">
	<unicode hex="0070"/>
	<advance width="1190"/>
	<outline>
		<contour>
			<point x="61" y="-480" type="line"/>
			<point x="61" y="-399.005859375" type="line"/>
			<point x="204" y="-364.005859375" type="line"/>
			<point x="206" y="418.8670654297" type="line"/>
			<point x="204" y="840.4028320312" type="line"/>
			<point x="56" y="870.4028320312" type="line"/>
			<point x="56" y="965.3969726562" type="line"/>
			<point x="315.5086669922" y="999.3969726562" type="line"/>
			<point x="350.5086669922" y="972.3969726562" type="line"/>
			<point x="375.5086669922" y="869.3969726562" type="line"/>
			<point x="419.4543457031" y="934.5798339844"/>
			<point x="590.4105224609" y="1019.3969726562"/>
			<point x="708.8172607422" y="1019.3969726562" type="qcurve" smooth="yes"/>
			<point x="891.3520507812" y="1019.3969726562"/>
			<point x="1122.2038574219" y="751.569519043"/>
			<point x="1122.2038574219" y="531.9033203125" type="qcurve" smooth="yes"/>
			<point x="1122.2038574219" y="289.3840332031"/>
			<point x="880.9292602539" y="-12"/>
			<point x="668.9696044922" y="-12" type="qcurve" smooth="yes"/>
			<point x="567.5028076172" y="-12"/>
			<point x="413.6295166016" y="45.4133300781"/>
			<point x="373.5086669922" y="83" type="qcurve"/>
			<point x="375.5086669922" y="-364.005859375" type="line"/>
			<point x="527.5086669922" y="-399.005859375" type="line"/>
			<point x="527.5086669922" y="-480" type="line"/>
		</contour>
		<contour>
			<point x="373.5086669922" y="235.4750366211" type="line"/>
			<point x="404.6077880859" y="178.1688842773"/>
			<point x="553.3143310547" y="92.0140991211"/>
			<point x="651.5555419922" y="92.0140991211" type="qcurve" smooth="yes"/>
			<point x="788.5555419922" y="92.0140991211"/>
			<point x="941.5408935547" y="323.2501831055"/>
			<point x="941.5408935547" y="504.9033203125" type="qcurve" smooth="yes"/>
			<point x="941.5408935547" y="676.3516235352"/>
			<point x="789.4530029297" y="896.8768310547"/>
			<point x="657.4530029297" y="896.8768310547" type="qcurve" smooth="yes"/>
			<point x="559.1707763672" y="896.8768310547"/>
			<point x="416.6796875" y="815.2315063477"/>
			<point x="374.5086669922" y="746.805480957" type="qcurve"/>
			<point x="371.5086669922" y="411.9159545898" type="line"/>
		</contour>
	</outline>
	<anchor name="bottom" x="599" y="0"/>
	<anchor name="top" x="599" y="1000"/>
</glyph>
<glyph name="q" format="2">
	<unicode hex="0071"/>
	<advance width="1182"/>
	<outline>
		<contour>
			<point x="68" y="479.2045288086" type="qcurve" smooth="yes"/>
			<point x="68" y="718.0356445312"/>
			<point x="334.2575683594" y="1018.0957641602"/>
			<point x="556.7896728516" y="1018.0957641602" type="qcurve" smooth="yes"/>
			<point x="637.3665771484" y="1018.0957641602"/>
			<point x="797.0421142578" y="973.9075927734"/>
			<point x="841.0407714844" y="944.2655639648" type="qcurve"/>
			<point x="896.0407714844" y="1008.0957641602" type="line"/>
			<point x="1141.5399169922" y="974.0957641602" type="line"/>
			<point x="1141.5399169922" y="879.381652832" type="line"/>
			<point x="992.5399169922" y="846.381652832" type="line"/>
			<point x="986.5399169922" y="431.6141967773" type="line"/>
			<point x="987.5399169922" y="-364.005859375" type="line"/>
			<point x="1139.5399169922" y="-399.005859375" type="line"/>
			<point x="1139.5399169922" y="-480" type="line"/>
			<point x="644.0407714844" y="-480" type="line"/>
			<point x="644.0407714844" y="-399.005859375" type="line"/>
			<point x="817.0407714844" y="-364.005859375" type="line"/>
			<point x="823.0407714844" y="121.3734130859" type="line"/>
			<point x="770.5040283203" y="61.8823852539"/>
			<point x="597.9580078125" y="-9"/>
			<point x="489.8322753906" y="-9" type="qcurve" smooth="yes"/>
			<point x="310.1550292969" y="-9"/>
			<point x="68" y="253.048034668"/>
		</contour>
		<contour>
			<point x="250.7829589844" y="489.9996948242" type="qcurve" smooth="yes"/>
			<point x="250.7829589844" y="306.2018432617"/>
			<point x="411.8913574219" y="114.6970214844"/>
			<point x="544.8913574219" y="114.6970214844" type="qcurve" smooth="yes"/>
			<point x="638.0095214844" y="114.6970214844"/>
			<point x="779.5637207031" y="186.3528442383"/>
			<point x="824.0407714844" y="239.5067138672" type="qcurve"/>
			<point x="826.0407714844" y="812.4060668945" type="line"/>
			<point x="790.5227050781" y="864.7838134766"/>
			<point x="662.6711425781" y="918.7060546875"/>
			<point x="568.7478027344" y="918.7060546875" type="qcurve" smooth="yes"/>
			<point x="426.7478027344" y="918.7060546875"/>
			<point x="250.7829589844" y="666.7975463867"/>
		</contour>
	</outline>
	<anchor name="bottom" x="594" y="0"/>
	<anchor name="top" x="594" y="1000"/>
</glyph>
<glyph name="u" format="2">
	<unicode hex="0075"/>
	<advance width="1248"/>
	<outline>
		<contour>
			<point x="56" y="870.4028320312" type="line"/>
			<point x="56" y="965.3969726562" type="line"/>
			<point x="315.7010498047" y="999.3969726562" type="line"/>
			<point x="350.7010498047" y="999.3969726562" type="line"/>
			<point x="375.7010498047" y="963.3969726562" type="line"/>
			<point x="373.7010498047" y="467.8791503906" type="line"/>
			<point x="373.7010498047" y="281.3167114258" type="line" smooth="yes"/>
			<point x="373.7010498047" y="216.3452758789"/>
			<point x="477.1143798828" y="106.5186157227"/>
			<point x="573.3162841797" y="106.5186157227" type="qcurve" smooth="yes"/>
			<point x="651.3162841797" y="106.5186157227"/>
			<point x="809.7010498047" y="183.9697875977"/>
			<point x="862.7010498047" y="258.5517578125" type="qcurve"/>
			<point x="863.7010498047" y="467.8791503906" type="line"/>
			<point x="861.7010498047" y="840.4028320312" type="line"/>
			<point x="723.7010498047" y="870.4028320312" type="line"/>
			<point x="723.7010498047" y="965.3969726562" type="line"/>
			<point x="973.5030517578" y="999.3969726562" type="line"/>
			<point x="1008.5030517578" y="999.3969726562" type="line"/>
			<point x="1033.5030517578" y="963.3969726562" type="line"/>
			<point x="1031.5030517578" y="467.8791503906" type="line"/>
			<point x="1033.5030517578" y="158.2351074219" type="line"/>
			<point x="1181.5030517578" y="128.2351074219" type="line"/>
			<point x="1181.5030517578" y="34" type="line"/>
			<point x="921.7010498047" y="0" type="line"/>
			<point x="886.7010498047" y="27" type="line"/>
			<point x="862.2972412109" y="141" type="line"/>
			<point x="804.9410400391" y="69"/>
			<point x="618.2667236328" y="-21"/>
			<point x="519.84765625" y="-21" type="qcurve" smooth="yes"/>
			<point x="360.4190673828" y="-21"/>
			<point x="204" y="127.1828613281"/>
			<point x="204" y="261" type="qcurve" smooth="yes"/>
			<point x="204" y="335"/>
			<point x="209" y="467.8791503906"/>
			<point x="209" y="467.8791503906" type="qcurve" smooth="yes"/>
			<point x="204" y="840.4028320312" type="line"/>
		</contour>
	</outline>
	<anchor name="bottom" x="622" y="0"/>
	<anchor name="ogonek" x="1030" y="20"/>
	<anchor name="top" x="622" y="1000"/>
	<anchor name="topright" x="1005" y="1000"/>
	<anchor name="cy_descender" x="1178" y="80"/>
</glyph>
<glyph name="v" format="2">
	<unicode hex="0076"/>
	<advance width="1016"/>
	<outline>
		<contour>
			<point x="-23.9004516602" y="914.4028320312" type="line"/>
			<point x="-23.9004516602" y="999.3969726562" type="line"/>
			<point x="418.6713256836" y="999.3969726562" type="line"/>
			<point x="418.6713256836" y="924.4028320312" type="line"/>
			<point x="278.6713256836" y="887.4028320312" type="line"/>
			<point x="405.2698974609" y="521.8393554688" type="line"/>
			<point x="486" y="301" type="line"/>
			<point x="523" y="187" type="line"/>
			<point x="533" y="187" type="line"/>
			<point x="570" y="301" type="line"/>
			<point x="644.7366333008" y="541.5704345703" type="line"/>
			<point x="765.7114868164" y="894.4028320312" type="line"/>
			<point x="628.7114868164" y="924.4028320312" type="line"/>
			<point x="628.7114868164" y="999.3969726562" type="line"/>
			<point x="1039.9939575195" y="999.3969726562" type="line"/>
			<point x="1039.9939575195" y="914.4028320312" type="line"/>
			<point x="884.9939575195" y="879.4028320312" type="line"/>
			<point x="739.416809082" y="506.3673706055" type="line"/>
			<point x="560.1540527344" y="-8" type="line"/>
			<point x="437.8148803711" y="-8" type="line"/>
			<point x="264.7244873047" y="476.6456298828" type="line"/>
			<point x="108.0995483398" y="879.4028320312" type="line"/>
		</contour>
	</outline>
	<anchor name="bottom" x="513" y="0"/>
	<anchor name="top" x="513" y="1000"/>
</glyph>
<glyph name="w" format="2">
	<unicode hex="0077"/>
	<advance width="1580"/>
	<outline>
		<contour>
			<point x="445.7783203125" y="-8" type="line"/>
			<point x="264.0986938477" y="488.2194213867" type="line"/>
			<point x="108.0995483398" y="880.4028320312" type="line"/>
			<point x="-23.9004516602" y="915.4028320312" type="line"/>
			<point x="-23.9004516602" y="999.3969726562" type="line"/>
			<point x="395.7625732422" y="999.3969726562" type="line"/>
			<point x="395.7625732422" y="928.4028320312" type="line"/>
			<point x="279.7625732422" y="881.4028320312" type="line"/>
			<point x="397.7462158203" y="523.153503418" type="line"/>
			<point x="488.258605957" y="278.5438232422" type="line"/>
			<point x="514.3856201172" y="185.3707275391" type="line"/>
			<point x="526.3856201172" y="185.3707275391" type="line"/>
			<point x="558.4281616211" y="276.4854125977" type="line"/>
			<point x="638.7415161133" y="469.3264770508" type="line"/>
			<point x="746.4280395508" y="765.0464477539" type="line"/>
			<point x="696.4875488281" y="883.4028320312" type="line"/>
			<point x="581.4875488281" y="928.4028320312" type="line"/>
			<point x="581.4875488281" y="999.3969726562" type="line"/>
			<point x="1007.0343017578" y="999.3969726562" type="line"/>
			<point x="1007.0343017578" y="928.4028320312" type="line"/>
			<point x="865.0343017578" y="881.4028320312" type="line"/>
			<point x="1014.9002685547" y="455.0767211914" type="line"/>
			<point x="1081.4803466797" y="277.3789672852" type="line"/>
			<point x="1105.4870605469" y="186.3554077148" type="line"/>
			<point x="1117.4870605469" y="186.3554077148" type="line"/>
			<point x="1142.0239257812" y="277.3789672852" type="line"/>
			<point x="1225.9633789062" y="504.5252075195" type="line"/>
			<point x="1363.0927124023" y="889.4028320312" type="line"/>
			<point x="1223.0927124023" y="928.4028320312" type="line"/>
			<point x="1223.0927124023" y="999.3969726562" type="line"/>
			<point x="1603.5975341797" y="999.3969726562" type="line"/>
			<point x="1603.5975341797" y="915.4028320312" type="line"/>
			<point x="1441.5975341797" y="880.4028320312" type="line"/>
			<point x="1308" y="496" type="line"/>
			<point x="1120.9498291016" y="-8" type="line"/>
			<point x="1037.0034790039" y="-8" type="line"/>
			<point x="830" y="480" type="line"/>
			<point x="777.1715698242" y="649.9132080078" type="line"/>
			<point x="765.1715698242" y="649.9132080078" type="line"/>
			<point x="701.3123779297" y="466.6975708008" type="line"/>
			<point x="515.4044189453" y="-8" type="line"/>
		</contour>
	</outline>
	<anchor name="bottom" x="787" y="0"/>
	<anchor name="top" x="787" y="1000"/>
</glyph>
<glyph name="x" format="2">
	<unicode hex="0078"/>
	<advance width="967"/>
	<outline>
		<contour>
			<point x="1.8936157227" y="0" type="line"/>
			<point x="1.8936157227" y="80.994140625" type="line"/>
			<point x="180.8936157227" y="115.994140625" type="line"/>
			<point x="425.9057006836" y="485.0385131836" type="line"/>
			<point x="145.235534668" y="880.4028320312" type="line"/>
			<point x="6.235534668" y="915.4028320312" type="line"/>
			<point x="6.235534668" y="999.3969726562" type="line"/>
			<point x="438.9804077148" y="999.3969726562" type="line"/>
			<point x="438.9804077148" y="918.4028320312" type="line"/>
			<point x="330.9804077148" y="881.4028320312" type="line"/>
			<point x="467.4232177734" y="690.8763427734" type="line"/>
			<point x="513.3304443359" y="595.3607788086" type="line"/>
			<point x="525.3304443359" y="595.3607788086" type="line"/>
			<point x="563.4000854492" y="687.4084472656" type="line"/>
			<point x="692.2852172852" y="888.4028320312" type="line"/>
			<point x="576.2852172852" y="918.4028320312" type="line"/>
			<point x="576.2852172852" y="999.3969726562" type="line"/>
			<point x="940.5207519531" y="999.3969726562" type="line"/>
			<point x="940.5207519531" y="915.4028320312" type="line"/>
			<point x="771.5207519531" y="880.4028320312" type="line"/>
			<point x="540.0758056641" y="522.7736206055" type="line"/>
			<point x="832.087890625" y="115.994140625" type="line"/>
			<point x="981.087890625" y="80.994140625" type="line"/>
			<point x="981.087890625" y="0" type="line"/>
			<point x="519.3963623047" y="0" type="line"/>
			<point x="519.3963623047" y="80.994140625" type="line"/>
			<point x="642.3963623047" y="117.994140625" type="line"/>
			<point x="510.475769043" y="304.3558959961" type="line"/>
			<point x="452.7847900391" y="411.9582519531" type="line"/>
			<point x="440.7847900391" y="411.9582519531" type="line"/>
			<point x="394.1287841797" y="307.7327270508" type="line"/>
			<point x="267.1291503906" y="110.994140625" type="line"/>
			<point x="373.1291503906" y="80.994140625" type="line"/>
			<point x="373.1291503906" y="0" type="line"/>
		</contour>
	</outline>
	<anchor name="bottom" x="522" y="0"/>
	<anchor name="top" x="522" y="1000"/>
	<anchor name="cy_descender" x="1043" y="80"/>
</glyph>
<glyph name="y" format="2">
	<unicode hex="0079"/>
	<advance width="1000"/>
	<outline>
		<contour>
			<point x="-20.871887207" y="912.4028320312" type="line"/>
			<point x="-20.871887207" y="999.3969726562" type="line"/>
			<point x="418.4691772461" y="999.3969726562" type="line"/>
			<point x="418.4691772461" y="918.4028320312" type="line"/>
			<point x="277.4691772461" y="881.4028320312" type="line"/>
			<point x="406.4450073242" y="520.8619995117" type="line"/>
			<point x="488.0739746094" y="285.803894043" type="line"/>
			<point x="511.4268188477" y="198.3977050781" type="line"/>
			<point x="523.4268188477" y="198.3977050781" type="line"/>
			<point x="548.5338134766" y="285.7096557617" type="line"/>
			<point x="639.0397949219" y="524.653137207" type="line"/>
			<point x="768.424987793" y="888.4028320312" type="line"/>
			<point x="631.424987793" y="918.4028320312" type="line"/>
			<point x="631.424987793" y="999.3969726562" type="line"/>
			<point x="1023.5673828125" y="999.3969726562" type="line"/>
			<point x="1023.5673828125" y="912.4028320312" type="line"/>
			<point x="868.5673828125" y="877.4028320312" type="line"/>
			<point x="720.8478393555" y="495.8851318359" type="line"/>
			<point x="434.9855957031" y="-280.0704345703" type="line" smooth="yes"/>
			<point x="389.5153808594" y="-395.3048706055"/>
			<point x="255.3227539062" y="-495"/>
			<point x="175.1868286133" y="-495" type="qcurve"/>
			<point x="24.0774536133" y="-459" type="line"/>
			<point x="24.0774536133" y="-373.9743652344" type="line"/>
			<point x="136.6832885742" y="-374.9743652344" type="line" smooth="yes"/>
			<point x="181.3895263672" y="-375.9743652344"/>
			<point x="298.8252563477" y="-318.6026611328"/>
			<point x="352.4107055664" y="-191.0997924805" type="qcurve" smooth="yes"/>
			<point x="386.9044189453" y="26.1423339844" type="line"/>
			<point x="448.8890380859" y="26.1423339844" type="line"/>
			<point x="265.6295776367" y="484.4909057617" type="line"/>
			<point x="111.128112793" y="877.4028320312" type="line"/>
		</contour>
	</outline>
	<anchor name="bottom" x="782" y="0"/>
	<anchor name="top" x="524" y="1000"/>
</glyph>
<glyph name="z" format="2">
	<unicode hex="007A"/>
	<advance width="912"/>
	<outline>
		<contour>
			<point x="34.673828125" y="0" type="line"/>
			<point x="34.673828125" y="93.0349121094" type="line"/>
			<point x="671.5537719727" y="889.7672729492" type="line"/>
			<point x="191.8090209961" y="889.7672729492" type="line"/>
			<point x="164.8090209961" y="759.8847045898" type="line"/>
			<point x="60" y="759.8847045898" type="line"/>
			<point x="60" y="999.3969726562" type="line"/>
			<point x="856.8940429688" y="999.3969726562" type="line"/>
			<point x="856.8940429688" y="907.3620605469" type="line"/>
			<point x="217.0419311523" y="102.629699707" type="line"/>
			<point x="742.9588012695" y="102.629699707" type="line"/>
			<point x="769.9588012695" y="232.5122680664" type="line"/>
			<point x="878.4759521484" y="232.5122680664" type="line"/>
			<point x="878.4759521484" y="0" type="line"/>
		</contour>
	</outline>
	<anchor name="bottom" x="443" y="0"/>
	<anchor name="top" x="443" y="1000"/>
	<anchor name="_liga" x="0" y="0"/>
</glyph>
<glyph name="idotless" format="2">
	<unicode hex="0131"/>
	<advance width="641"/>
	<outline>
		<contour>
			<point x="77" y="0" type="line"/>
			<point x="77" y="80.994140625" type="line"/>
			<point x="245" y="115.994140625" type="line"/>
			<point x="247" y="548.9879150391" type="line"/>
			<point x="238.8798828125" y="840.4028320312" type="line"/>
			<point x="72" y="870.4028320312" type="line"/>
			<point x="72" y="966.3969726562" type="line"/>
			<point x="352.00390625" y="999.3969726562" type="line"/>
			<point x="399.00390625" y="999.3969726562" type="line"/>
			<point x="422.00390625" y="960.3969726562" type="line"/>
			<point x="415.00390625" y="548.9879150391" type="line"/>
			<point x="417.00390625" y="115.994140625" type="line"/>
			<point x="575.00390625" y="80.994140625" type="line"/>
			<point x="575.00390625" y="0" type="line"/>
		</contour>
	</outline>
	<anchor name="bottom" x="320" y="0"/>
	<anchor name="top" x="320" y="1000"/>
	<anchor name="ogonek" x="513" y="0"/>
	<anchor name="liga" x="639" y="0"/>
</glyph>
<glyph name="jdotless" format="2">
	<advance width="557"/>
	<outline>
		<contour>
			<point x="-40" y="-484" type="qcurve"/>
			<point x="-40" y="-385.0854492188" type="line"/>
			<point x="112" y="-390.0854492188"/>
			<point x="221.7199707031" y="-274.0854492188"/>
			<point x="221" y="-100.0854492188" type="qcurve" smooth="yes"/>
			<point x="219" y="552" type="line"/>
			<point x="211.8798828125" y="840.4028320312" type="line"/>
			<point x="45" y="870.4028320312" type="line"/>
			<point x="45" y="965.3969726562" type="line"/>
			<point x="325.00390625" y="999.3969726562" type="line"/>
			<point x="372.00390625" y="999.3969726562" type="line"/>
			<point x="395.00390625" y="960.3969726562" type="line"/>
			<point x="389.00390625" y="552" type="line"/>
			<point x="391.00390625" y="-27" type="line" smooth="yes"/>
			<point x="392.00390625" y="-271"/>
			<point x="179.0933837891" y="-501.1009521484"/>
		</contour>
	</outline>
	<anchor name="bottom" x="278" y="-436"/>
	<anchor name="top" x="278" y="1000"/>
	<anchor name="_liga" x="0" y="0"/>
</glyph>
